<svg xmlns="http://www.w3.org/2000/svg" viewBox="0 0 866.25 866.25"><defs><style>.cls-1{fill-rule:evenodd;}</style></defs><g id="Layer_1" data-name="Layer 1"><path d="M941.15,566.22a437.86,437.86,0,0,0,0-108.44l-121.4-23.94a315.33,315.33,0,0,0-35.12-84.5l69-102.85a435.58,435.58,0,0,0-76.69-76.69L673.8,238.94a315.23,315.23,0,0,0-84.12-34.67l-24.07-122a436.49,436.49,0,0,0-108.43,0L433,204.67a315.34,315.34,0,0,0-83.31,34.76L245.88,169.8a435.86,435.86,0,0,0-76.68,76.69L239,350.58a315.23,315.23,0,0,0-34.31,82.93l-123,24.27a437.86,437.86,0,0,0,0,108.44l123.05,24.27A315.23,315.23,0,0,0,239,673.42L169.2,777.51a435.86,435.86,0,0,0,76.68,76.69l103.85-69.63A315.34,315.34,0,0,0,433,819.33l24.14,122.42a436.49,436.49,0,0,0,108.43,0l24.07-122a315.23,315.23,0,0,0,84.12-34.67L776.91,854.2a435.58,435.58,0,0,0,76.69-76.69l-69-102.85a315.33,315.33,0,0,0,35.12-84.5Zm-429.75,193c-136.53,0-247.21-110.68-247.21-247.21S374.87,264.79,511.4,264.79,758.61,375.47,758.61,512,647.93,759.21,511.4,759.21Z" transform="translate(-78.27 -78.87)"/></g><g id="Layer_2" data-name="Layer 2"><path class="cls-1" d="M512.38,310.17c-111.47,0-201.84,90.36-201.84,201.83,0,150.35,164.41,262.31,323.26,165.91,15.21-9.23,35.25-29.28,44.48-44.49C774.69,474.57,662.73,310.17,512.38,310.17Zm59.87,374c-94.92,33.07-198.69-17.08-231.76-112,69.64-6.78,172.35-29,111.08-100.49,77.55-26,96.58,44,151.56,76,20.06,11.66,49.49,21.91,79.53,28.84A182,182,0,0,1,572.25,684.12Z" transform="translate(-78.27 -78.87)"/></g></svg>
