<svg xmlns="http://www.w3.org/2000/svg" xmlns:xlink="http://www.w3.org/1999/xlink" viewBox="0 0 866.25 866.25"><defs><style>.cls-1{fill:url(#linear-gradient);}.cls-2{fill:#fff;}.cls-3{fill:#00078f;fill-rule:evenodd;}.cls-4{fill:#fdfdff;}</style><linearGradient id="linear-gradient" x1="320.22" y1="157.76" x2="740.95" y2="937.35" gradientUnits="userSpaceOnUse"><stop offset="0" stop-color="#3771b8"/><stop offset="1" stop-color="#00078f"/></linearGradient></defs><g id="Layer_1" data-name="Layer 1"><path class="cls-1" d="M941.15,566.22a437.86,437.86,0,0,0,0-108.44l-121.4-23.94a315.33,315.33,0,0,0-35.12-84.5l69-102.85a435.58,435.58,0,0,0-76.69-76.69L673.8,238.94a315.23,315.23,0,0,0-84.12-34.67l-24.07-122a436.49,436.49,0,0,0-108.43,0L433,204.67a315.34,315.34,0,0,0-83.31,34.76L245.88,169.8a435.86,435.86,0,0,0-76.68,76.69L239,350.58a315.23,315.23,0,0,0-34.31,82.93l-123,24.27a437.86,437.86,0,0,0,0,108.44l123.05,24.27A315.23,315.23,0,0,0,239,673.42L169.2,777.51a435.86,435.86,0,0,0,76.68,76.69l103.85-69.63A315.34,315.34,0,0,0,433,819.33l24.14,122.42a436.49,436.49,0,0,0,108.43,0l24.07-122a315.23,315.23,0,0,0,84.12-34.67L776.91,854.2a435.58,435.58,0,0,0,76.69-76.69l-69-102.85a315.33,315.33,0,0,0,35.12-84.5Z" transform="translate(-78.27 -78.87)"/><circle class="cls-2" cx="433.13" cy="433.13" r="247.21"/></g><g id="Layer_2" data-name="Layer 2"><g id="layer1"><g id="surface85753"><path id="path1984" class="cls-3" d="M512.38,310.17c150.35,0,262.31,164.4,165.9,323.25-9.23,15.21-29.27,35.26-44.48,44.49C475,774.31,310.54,662.35,310.54,512c0-111.47,90.37-201.83,201.84-201.83" transform="translate(-78.27 -78.87)"/><path id="path1986" class="cls-4" d="M682.66,576.52c-30-6.93-59.47-17.18-79.53-28.84-55-32.08-74-102.09-151.56-76,61.27,71.46-41.44,93.71-111.08,100.49,33.07,94.92,136.84,145.07,231.76,112a182,182,0,0,0,110.41-107.6" transform="translate(-78.27 -78.87)"/></g></g></g></svg>
